<?xml version="1.0" encoding="iso-8859-1"?>
<!-- Generator: Adobe Illustrator 16.0.0, SVG Export Plug-In . SVG Version: 6.00 Build 0)  -->
<!DOCTYPE svg PUBLIC "-//W3C//DTD SVG 1.1//EN" "http://www.w3.org/Graphics/SVG/1.1/DTD/svg11.dtd">
<svg version="1.1" id="Capa_1" xmlns="http://www.w3.org/2000/svg" xmlns:xlink="http://www.w3.org/1999/xlink" x="0px" y="0px"
	 width="32px" height="32px" viewBox="0 0 32 32" style="enable-background:new 0 0 32 32;" xml:space="preserve">
<g>
	<g>
		<polygon points="12.548,23.929 13.007,23.949 13.007,21.259 12.548,21.257 		"/>
		<polygon points="14.477,21.041 14.477,23.93 14.836,23.915 14.836,21.09 14.975,21.09 14.975,23.91 15.349,23.896 15.349,21.04 		
			"/>
		<path d="M18.064,4.377L0.075,8.478L0,11.12l1.092-0.196v15.127l4.385,0.402v-0.396L5.968,26.1v-0.654l0.444,0.033v-0.547
			l0.491,0.031v-0.425v-0.005l-1.765-0.104l-0.104-0.006V20.73l2.219-0.008v2.969l0.308,0.015v-6.894l2.957-0.195v7.221l0.236,0.012
			v-2.602v-0.566l2.674-0.012h0.128l2.282,0.021l-0.037,3.186v0.951l-2.37,0.107l-2.676-0.173v0.708L10.2,25.434v0.447l-0.501-0.039
			v0.577l-0.554-0.048v0.42l9.053,0.832l13.007-1.16V9.894L32,10.041v-2.47L18.064,4.377z M5.41,20.498l-2.635,0.02v-3.324
			l2.635-0.172V20.498z M5.531,14.982l-2.646,0.262v-3.33l2.646-0.415V14.982z M10.568,14.407l-3.097,0.311v-3.597l3.097-0.489
			V14.407z M12.942,10.268l3.683-0.582v4.127l-3.683,0.368V10.268z M16.703,20.345l-3.691,0.03v-3.917l3.691-0.245V20.345z
			 M19.75,9.54l4.081,0.656v4.043L19.75,13.83V9.54z M19.912,16.175l4.062,0.272v4.035l-4.062-0.027V16.175z M24.163,24.676
			l-4.097,0.23v-1.903l4.097-0.12V24.676z M26.469,10.762l3.363,0.533v3.681l-3.363-0.33V10.762z M29.891,24.48l-3.402,0.199V22.95
			l3.402-0.106V24.48z M29.951,20.657l-3.35-0.015v-3.875l3.35,0.217V20.657z"/>
		<polygon points="11.668,23.891 11.668,21.252 11.15,21.25 11.15,23.866 		"/>
		<polygon points="14.325,21.042 13.885,21.042 13.885,23.953 14.325,23.936 		"/>
		<polygon points="11.842,23.898 12.371,23.921 12.371,21.256 11.842,21.253 		"/>
		<polygon points="6.351,21.256 5.917,21.254 5.917,23.633 6.351,23.652 		"/>
		<polygon points="6.903,21.259 6.497,21.257 6.497,23.659 6.903,23.677 		"/>
		<polygon points="5.773,21.253 5.363,21.251 5.363,23.607 5.773,23.627 		"/>
	</g>
</g>
<g>
</g>
<g>
</g>
<g>
</g>
<g>
</g>
<g>
</g>
<g>
</g>
<g>
</g>
<g>
</g>
<g>
</g>
<g>
</g>
<g>
</g>
<g>
</g>
<g>
</g>
<g>
</g>
<g>
</g>
</svg>
